<?xml version="1.0" standalone="no"?>
<!DOCTYPE svg PUBLIC "-//W3C//DTD SVG 1.1//EN" "http://www.w3.org/Graphics/SVG/1.1/DTD/svg11.dtd" >
<svg xmlns="http://www.w3.org/2000/svg">
<metadata>
Created by FontForge 20120731 at Sat Oct  8 15:08:53 2016
 By admin
</metadata>
<defs>
<font id="icon-broad" horiz-adv-x="1024" >
  <font-face 
    font-family="icon-broad"
    font-weight="500"
    font-stretch="normal"
    units-per-em="1024"
    panose-1="2 0 6 3 0 0 0 0 0 0"
    ascent="896"
    descent="-128"
    x-height="792"
    bbox="0 -212 1889.13 896"
    underline-thickness="50"
    underline-position="-100"
    unicode-range="U+0078-E626"
  />
<missing-glyph horiz-adv-x="374" 
d="M34 0v682h272v-682h-272zM68 34h204v614h-204v-614z" />
    <glyph glyph-name=".notdef" horiz-adv-x="374" 
d="M34 0v682h272v-682h-272zM68 34h204v614h-204v-614z" />
    <glyph glyph-name=".null" horiz-adv-x="0" 
 />
    <glyph glyph-name="nonmarkingreturn" horiz-adv-x="341" 
 />
    <glyph glyph-name="x" unicode="x" horiz-adv-x="1001" 
d="M281 543q-27 -1 -53 -1h-83q-18 0 -36.5 -6t-32.5 -18.5t-23 -32t-9 -45.5v-76h912v41q0 16 -0.5 30t-0.5 18q0 13 -5 29t-17 29.5t-31.5 22.5t-49.5 9h-133v-97h-438v97zM955 310v-52q0 -23 0.5 -52t0.5 -58t-10.5 -47.5t-26 -30t-33 -16t-31.5 -4.5q-14 -1 -29.5 -0.5
t-29.5 0.5h-32l-45 128h-439l-44 -128h-29h-34q-20 0 -45 1q-25 0 -41 9.5t-25.5 23t-13.5 29.5t-4 30v167h911zM163 247q-12 0 -21 -8.5t-9 -21.5t9 -21.5t21 -8.5q13 0 22 8.5t9 21.5t-9 21.5t-22 8.5zM316 123q-8 -26 -14 -48q-5 -19 -10.5 -37t-7.5 -25t-3 -15t1 -14.5
t9.5 -10.5t21.5 -4h37h67h81h80h64h36q23 0 34 12t2 38q-5 13 -9.5 30.5t-9.5 34.5q-5 19 -11 39h-368zM336 498v228q0 11 2.5 23t10 21.5t20.5 15.5t34 6h188q31 0 51.5 -14.5t20.5 -52.5v-227h-327z" />
    <glyph glyph-name="uniE600" unicode="&#xe600;" 
d="M867 169q46 -18 71.5 -40t25.5 -46q0 -38 -61 -70t-165 -50.5t-227 -18.5t-227 18.5t-165 50.5t-61 70q0 48 96 86q-22 -15 -22 -32q0 -39 111 -67t268 -28t268 28t111 67q0 17 -23 32zM289 803q34 0 58 -24t24 -58t-24 -58t-58 -24t-58 24t-24 58t24 58t58 24zM732 803
q-34 0 -58 -24t-24 -58t24 -58t58 -24t58 24t24 58t-24 58t-58 24zM651 330v-217h58l23 152l23 -152h63v240q19 10 30.5 29t11.5 41v123q0 32 -23 55t-55 23h-96q-9 0 -18 -2q20 -31 20 -69v-133q0 -53 -37 -90zM512 834q37 0 63.5 -26.5t26.5 -63.5t-26.5 -63t-63.5 -26
t-63 26t-26 63t26 63.5t63 26.5zM601 344q21 11 33.5 31t12.5 45v133q0 35 -25 60t-60 25h-104q-35 0 -60 -25t-25 -60v-133q0 -25 12.5 -45t33.5 -31v-261h68l25 165l26 -165h63v261zM370 330q-38 37 -38 90v133q0 38 21 69q-9 2 -18 2h-97q-32 0 -55 -23t-23 -55v-123
q0 -22 12 -41t31 -29v-240h63l23 152l23 -152h58v217z" />
    <glyph glyph-name="uniE601" unicode="&#xe601;" 
d="M510 -9q-10 0 -17 7t-7 17q0 -10 7 -17t17 -7t17 7t7 17q0 -10 -7 -17t-17 -7zM411.5 -9q-9.5 0 -16.5 7t-7 17q0 -10 7 -17t16.5 -7t16.5 7t7 17q0 -10 -7 -17t-16.5 -7zM510 217q-10 0 -17 -7t-7 -16q0 9 7 16t17 7zM608 -9q-10 0 -16.5 7t-6.5 17q0 -10 6.5 -17
t16.5 -7t17 7t7 17q0 -10 -7 -17t-17 -7zM548 718v26q0 11 -7.5 18.5t-18 7.5t-18.5 -7.5t-8 -18.5v-52h52v26zM646 718v26q0 11 -7.5 18.5t-18.5 7.5t-18.5 -7.5t-7.5 -18.5v-52h52v26zM632 667h-201v105h-18v91q0 11 -7.5 18.5t-18 7.5t-18.5 -7.5t-8 -18.5v-91h-18v-114
h1q-30 -13 -48.5 -40.5t-18.5 -61.5v-203q0 -53 42 -87v0v-273q0 -12 3 -24q8 -37 38 -61.5t69 -24.5h160q39 0 69.5 24.5t38.5 61.5q3 12 3 24v273v0q42 34 42 87v203q0 46 -32.5 78.5t-77.5 32.5zM456 425q-38 27 -38 74q0 38 26.5 65t64.5 27t65 -27t27 -65
q0 -47 -39 -74q29 -15 46.5 -42.5t17.5 -61.5h-233q0 34 17.5 61.5t45.5 42.5zM456 193.5q0 -15.5 -11 -26.5t-26.5 -11t-26.5 11t-11 26.5t11 26.5t26.5 11t26.5 -11t11 -26.5zM549 193.5q0 -15.5 -11 -26.5t-26.5 -11t-26.5 11t-11 26.5t11 26.5t26.5 11t26.5 -11
t11 -26.5zM643 193.5q0 -15.5 -11 -26.5t-26.5 -11t-26.5 11t-11 26.5t11 26.5t26.5 11t26.5 -11t11 -26.5zM456 102.5q0 -15.5 -11 -26.5t-26.5 -11t-26.5 11t-11 26.5t11 26.5t26.5 11t26.5 -11t11 -26.5zM549 102.5q0 -15.5 -11 -26.5t-26.5 -11t-26.5 11t-11 26.5
t11 26.5t26.5 11t26.5 -11t11 -26.5zM643 102.5q0 -15.5 -11 -26.5t-26.5 -11t-26.5 11t-11 26.5t11 26.5t26.5 11t26.5 -11t11 -26.5zM456 3.5q0 -15.5 -11 -26.5t-26.5 -11t-26.5 11t-11 26.5t11 26.5t26.5 11t26.5 -11t11 -26.5zM549 3.5q0 -15.5 -11 -26.5t-26.5 -11
t-26.5 11t-11 26.5t11 26.5t26.5 11t26.5 -11t11 -26.5zM643 3.5q0 -15.5 -11 -26.5t-26.5 -11t-26.5 11t-11 26.5t11 26.5t26.5 11t26.5 -11t11 -26.5z" />
    <glyph glyph-name="uniE602" unicode="&#xe602;" horiz-adv-x="1000" 
d="M218 371h79v-27h-79v27zM502 396q11 0 21 -5q38 46 82 79q12 -12 23 -22q-34 -50 -79 -90q1 -5 1 -10q0 -19 -14 -33t-33.5 -14t-33.5 14t-14 33q0 15 8 27q-53 72 -89 153q4 3 12 7t11 6q55 -73 91 -147q7 2 14 2zM434 655v-81l224 128l-223 130l-1 -83
q-129 -19 -221 -112q-56 -56 -86 -128.5t-30 -152t30 -152t86 -128.5t128.5 -86t151.5 -30t151.5 30t128.5 86q68 68 97 159l5 14l-89 27l-4 -14q-23 -69 -74 -120q-89 -89 -215 -89t-215 89t-89 214.5t89 214.5q66 66 156 84zM793 402q-4 29 -14 57l-5 14l87 32l5 -14
q14 -40 20 -82l2 -16l-93 -4zM792 301q5 27 5 56v5l-1 14l93 4v-15v-8q0 -41 -8 -80l-3 -15l-89 26zM763 496q-12 24 -29 45l-8 11l73 58l9 -12q23 -31 41 -66l7 -15l-87 -32zM717 562l-9 9q-21 21 -44 37l-13 9l58 73l11 -8q28 -20 53 -45l6 -6l11 -12zM493 87v79h27v-79
h-27zM692 166l-56 55l20 20l55 -56zM297 172l56 56l19 -19l-56 -56zM303 567l56 -55l-19 -20l-56 56zM699 561l-20 19l-55 -56l19 -19zM777 362h-79v27h79v-27z" />
    <glyph glyph-name="uniE603" unicode="&#xe603;" 
d="M752 120q-31 36 -95 62t-132 39t-132.5 22.5t-107 18t-44.5 19.5v292q2 16 37 26t91 20t117.5 23.5t128.5 43t112 71.5q110 102 175 -32q51 -104 55 -288v-21q0 -147 -50 -252q-46 -98 -106 -79q-25 7 -49 35zM62 364v148q0 25 17.5 42.5t42.5 17.5h60v-267h-60
q-25 0 -42.5 17t-17.5 42zM312 198q18 -4 36.5 -9.5t27.5 -8.5l9 -4q14 -37 50 -88q22 -31 33.5 -49.5t23.5 -42.5t6.5 -36t-27.5 -12q-10 0 -28 -0.5t-26 -0.5q-37 0 -64 27t-66 94q-25 42 -35.5 78t-8.5 51l2 15q25 -6 67 -14z" />
    <glyph glyph-name="uniE604" unicode="&#xe604;" 
d="M989 263q35 69 -16 169.5t-166 196.5l-35 -60q87 -75 123.5 -148.5t9.5 -120.5q-25 -43 -96 -51t-168.5 20t-197.5 86q-154 88 -235.5 197t-43.5 175q28 48 110 53t188 -32l35 61q-140 52 -255 45.5t-158 -73.5h-1q-1 -3 -3 -5v-2h-1q-45 -77 -53.5 -168t24.5 -189
q44 -126 145.5 -220.5t234 -135.5t263.5 -15q98 19 174 72t120 131l1 1l1 1q1 1 1 4v4l1 1q3 2 0 6zM481 595l-106 -28q-11 -3 -15.5 -16t-0.5 -28.5t14.5 -24.5t21.5 -6l101 27q12 -19 32 -30q18 -11 38 -13l27 -98q3 -11 16 -16t28.5 -0.5t24.5 15t6 21.5l-27 102
q12 11 20 24q20 35 9.5 74t-45.5 59.5t-74 10t-59 -45.5q-7 -12 -11 -27zM635 677q14 -8 26.5 -8.5t16.5 6.5l78 135q4 7 -2.5 17.5t-20.5 18.5t-26.5 8.5t-16.5 -6.5l-78 -135q-4 -7 2.5 -17.5t20.5 -18.5zM681 -6q-177 -33 -353 42q-123 -47 -191 -160h654
q-45 72 -110 118z" />
    <glyph glyph-name="uniE605" unicode="&#xe605;" horiz-adv-x="1434" 
d="M1434 -61q0 100 -49 188.5t-133 142.5t-184 58q86 8 144.5 72t58.5 151q0 92 -65 157t-157 65q-31 0 -57 -8q34 -65 34 -140q0 -73 -33.5 -137t-91.5 -105q54 -47 128 -55q-25 0 -69 -9q108 -60 178.5 -165t82.5 -230h210q1 -1 1.5 0t1 4.5t0.5 5.5v5zM1434 -61zM493 311
q-44 15 -91 15q86 8 141 67q-51 41 -80 100t-29 127q0 66 32 130q-47 18 -84 18q-92 0 -157 -65t-65 -157q0 -87 60 -151t145 -71q-100 -4 -184.5 -57t-132.5 -140t-48 -188v-18h242q13 124 80 227.5t171 162.5zM493 311zM755 353q104 9 175.5 87t71.5 185
q0 112 -79.5 191.5t-192.5 79.5t-192 -79.5t-79 -191.5q0 -107 72.5 -185t176.5 -87q-122 -6 -224 -69.5t-161 -169.5t-59 -230v-12h938v12q0 124 -59.5 229.5t-162 169.5t-225.5 70zM755 353z" />
    <glyph glyph-name="uniE606" unicode="&#xe606;" 
d="M765 426l20 -20l21 21l-20 19zM824 345q-6 -5 -11 -10t-11 -10l21 -21l31 31l-20 20zM763 384l-20 19l21 21l19 -20zM740 361l-20 20l21 21l20 -20zM537 854l-494 1l927 -928v494zM643 577l50 -50q7 6 14 15l18 18l22 -31h-13l-22 -21l2 -2l22 5l3 -28l-6 2l-22 21
l-12 -12l-19 -18q-10 -11 -26 -28q-9 -9 -21 -7t-28 15q4 5 6.5 9.5t2.5 9t-2 10t-6 13.5h1l20 -21q8 -8 16 0l49 49l-50 50zM617 513.5q0 3.5 3 8.5q6 8 10.5 16.5t6.5 19.5h1q11 -21 12.5 -33t-4.5 -17q-6 -7 -13.5 -6.5t-12.5 4.5q-3 4 -3 7.5zM636 644
q13 -21 15.5 -32.5t-4.5 -18.5q-3 -3 -6.5 -4.5t-7 -1.5t-7 1t-5.5 4q-7 6 -2 14q4 7 7 11.5t4.5 8.5t2.5 8t3 9v1zM486 545.5q-11 2.5 -25 16.5l-81 81q-5 5 -7 9t-2 8.5t3.5 9.5t9.5 11l46 46q6 6 13 14l16 16l23 -31h-13l-15 -15l61 -62l44 44l-86 87l1 1l84 -84l17 5
l13 -32l-13 -2l-19 -18l-6 -6l-6 -6q-3 -3 -6 -7l-9 -9q-2 -2 -4 -2.5t-5 1.5q-9 6 -18 15l12 12l-62 61l-44 -44q-4 -4 -4.5 -7t3.5 -7l62 -62q7 -6 11.5 -7.5t11.5 1.5l38 18l1 -1l-21 -27q-3 -3 -4.5 -6t-0.5 -9t-2 -9q-6 -6 -17 -3.5zM660 398q-6 2 -12 -0.5t-17 -10.5
q-5 4 -11 9l-10 10q-6 5 -11 9.5t-8 8.5q-15 15 -24 26.5t-13 22t-3 21t5 23.5q-9 -2 -19.5 -3.5t-22.5 -1.5l-10 -6l10 37q1 -1 6 -3l6 -4l8 -2q3 -2 7 -3l47 47l-19 19l1 1l17 -16l18 6l12 -34l-15 -1l-38 -38q-3 -3 -4 -8t3 -12t13 -17.5t23 -24.5q11 -11 27 -25t35 -29z
M703 357q-14 -1 -29.5 1.5t-30.5 7.5v1q13 2 22.5 4.5t19.5 5.5q6 3 10 4.5t7 3.5l12 -32zM708.5 321.5q-0.5 2.5 2.5 7.5t5 8.5t3.5 7.5t2.5 8l2 8h1q5 -8 8 -14t4 -12q3 -12 -4 -18q-4 -5 -10.5 -5t-11.5 4q-2 3 -2.5 5.5zM861.5 309q-4.5 -5 -10.5 -11l-13 -13l-14 -14
q-6 -7 -12.5 -13.5t-9.5 -10.5q-4 -4 -8 -6t-9 -2t-11 2.5t-14 7.5q4 5 5.5 8.5t2 7.5t-1 9.5t-5.5 12.5h1l14 -15q7 -8 14 0l32 31l-21 21q-13 -11 -23.5 -17t-21.5 -9t-23 -2t-28 5v1q11 2 20 4.5t16.5 5t14 6.5t14.5 10l-82 82l1 2l15 -15l66 66l-13 12l1 2l13 -13l11 12
q6 5 10 10l19 -27l-11 1l-13 -12l20 -20l11 11q5 5 10 11l19 -27l-12 1l-12 -12l1 -1l14 3l1 -19l-4 2l-13 13l-65 -64l16 2l2 -16q6 5 12 10.5t14 12.5l27 27q7 7 14.5 15t14.5 15l13 -26l15 -15l17 6l7 -30l-11 -1l-30 -31q-2 -1 -6.5 -6zM855 337l-20 20l31 30l20 -20z
" />
    <glyph glyph-name="uniE607" unicode="&#xe607;" 
d="M358 341q-1 -1 -1 -2l-41 -151q-4 -14 6 -24q8 -8 18 -8q4 0 7 1l150 41v0q3 0 5 2l400 400q18 18 18 45q0 32 -23 55l-38 38q-23 23 -54 23q-28 0 -46 -18l-400 -400l-1 -1v-1zM863 639l-40 -40l-64 66l39 39q5 4 12.5 3.5t12.5 -5.5l38 -38q6 -6 6 -14q0 -7 -4 -11z
M429 335l289 289l64 -66l-288 -288zM377 218l21 77l55 -56zM888.5 480q-11.5 0 -19.5 -8t-8 -19v-373q0 -15 -10.5 -25.5t-25.5 -10.5h-631q-14 0 -24.5 10.5t-10.5 25.5v608q0 15 10.5 25.5t24.5 10.5h407q11 0 19 8t8 19.5t-8 19.5t-19 8h-411q-36 0 -61 -25.5t-25 -60.5
v-618q0 -35 25 -60.5t61 -25.5h639q36 0 61.5 25.5t25.5 60.5v378q0 11 -8 19t-19.5 8z" />
    <glyph glyph-name="uniE608" unicode="&#xe608;" 
d="M799 793h-574q-50 0 -86 -36t-36 -86v-574q0 -50 36 -86t86 -36h574q50 0 86 36t36 86v574q0 50 -36 86t-86 36zM721 744v-311h-418v311h418zM872 97q0 -30 -21.5 -51.5t-51.5 -21.5h-574q-30 0 -51.5 21.5t-21.5 51.5v574q0 30 21.5 51.5t51.5 21.5h29v-360h516v360h29
q30 0 51.5 -21.5t21.5 -51.5v-574zM611 459q10 0 17.5 7.5t7.5 17.5v172q0 10 -7.5 17t-17.5 7t-17 -7t-7 -17v-172q0 -10 7 -17.5t17 -7.5z" />
    <glyph glyph-name="uniE609" unicode="&#xe609;" 
d="M703 -63h-406q-39 0 -62 4.5t-39.5 18.5t-23 39.5t-6.5 68.5v438q0 11 8 19t19.5 8t19 -8t7.5 -19v-438v-32q0 -7 3 -19.5t6.5 -14.5t13.5 -6t21.5 -4.5t32.5 -0.5h406q23 0 33.5 0.5t22.5 3.5t16 7t8 13t5 21t1 32v438q0 11 8 19t19 8t19 -8t8 -19v-438q0 -77 -30 -104
t-110 -27zM694 655q-11 0 -19 8t-8 19v8q0 58 -15.5 72.5t-69.5 14.5h-163q-29 0 -43.5 -2.5t-22.5 -13.5t-9.5 -24.5t-1.5 -46.5v-8q0 -11 -8 -19t-19 -8t-19 8t-8 19v8q0 80 27.5 110.5t103.5 30.5h163q81 0 110 -33t29 -108v-8q0 -11 -8 -19t-19 -8zM342.5 73
q-5.5 0 -9.5 4t-4 9v27q0 6 4 10t9.5 4t9.5 -4t4 -10v-27q0 -5 -4 -9t-9.5 -4zM342.5 167q-5.5 0 -9.5 4t-4 10v230q0 6 4 10t9.5 4t9.5 -4t4 -10v-230q0 -6 -4 -10t-9.5 -4zM504.5 73q-5.5 0 -9.5 4t-4 9v325q0 6 4 10t9.5 4t9.5 -4t4 -10v-325q0 -5 -4 -9t-9.5 -4zM667 73
q-6 0 -9.5 4t-3.5 9v325q0 6 3.5 10t9.5 4t10 -4t4 -10v-325q0 -5 -4 -9t-10 -4zM951 590q0 -46 -32.5 -78.5t-78.5 -32.5h-657q-46 0 -79 32.5t-33 78.5v7q0 46 33 79t79 33h657q46 0 78.5 -33t32.5 -79v-7zM897 597q0 24 -16.5 41t-40.5 17h-657q-24 0 -40.5 -17
t-16.5 -41v-7q0 -23 16.5 -40t40.5 -17h657q24 0 40.5 17t16.5 40v7z" />
    <glyph glyph-name="uniE60A" unicode="&#xe60a;" 
d="M968 50q-6 21 -28 21h-371q-10 0 -16.5 -6.5t-6.5 -16.5t6.5 -16.5t16.5 -6.5h325l-139 -109q-7 -5 -9 -14q-2 -10 4 -19q7 -9 19 -9q9 0 14 5l176 138q15 12 9 33zM576 133h370q10 0 16.5 6.5t6.5 16.5t-6.5 16.5t-16.5 6.5h-324l137 109q8 5 9 13q3 10 -3 19
q-7 9 -19 9q-8 0 -14 -4l-175 -139q-15 -12 -9 -33q6 -20 28 -20zM497 896q-126 0 -215 -89t-89 -215q0 -83 42 -154q40 -69 109 -109l15 -9l-16 -5q-128 -48 -207 -160q-81 -115 -81 -255q0 -12 8 -20t19 -8h528q11 0 19 8t8 19.5t-8 19.5t-19 8h-500l1 8q14 149 124 250
q112 103 262 103q8 0 12 -1q5 0 8 1h1h1q119 8 200.5 96t81.5 207q0 126 -89 215.5t-215 89.5zM497 342q-103 0 -176 73.5t-73 176.5t73 176t176 73t176.5 -73t73.5 -176t-73.5 -176.5t-176.5 -73.5z" />
    <glyph glyph-name="uniE60B" unicode="&#xe60b;" 
d="M797 342h7q4 0 6 -1q-78 79 -183 107q44 26 71 71.5t27 99.5q0 82 -58 139.5t-140 57.5t-140 -57.5t-58 -139.5q0 -54 27 -99.5t71 -71.5q-129 -34 -212 -140t-83 -243q0 -18 2 -39h440q-14 39 -14 79q0 98 69.5 167.5t167.5 69.5zM888 179h-87v87q0 15 -10.5 25t-25 10
t-25 -10t-10.5 -25v-87h-87q-15 0 -25.5 -10.5t-10.5 -25.5t10.5 -25t25.5 -10h87v-87q0 -15 10.5 -25.5t25 -10.5t25 10.5t10.5 25.5v87h87q15 0 25 10t10 25t-10 25.5t-25 10.5z" />
    <glyph glyph-name="uniE60C" unicode="&#xe60c;" 
d="M151 159h595q22 0 38 16t16 38v473q0 22 -16 38t-38 16h-266h-1q-13 0 -21.5 -9t-8.5 -21.5t8.5 -21t21.5 -8.5h1h244q7 0 11.5 -4.5t4.5 -10.5v-431q0 -6 -4.5 -10.5t-11.5 -4.5h-552q-6 0 -10.5 4.5t-4.5 10.5v128v1q0 12 -9 21t-21.5 9t-21 -9t-8.5 -21v-1v-149
q0 -22 15.5 -38t38.5 -16zM899.5 602q-12.5 0 -21.5 -8.5t-9 -21.5v-463q0 -7 -5 -12.5t-12 -5.5h-619q-12 0 -21 -8.5t-9 -21t9 -21t21 -8.5h619q32 0 54.5 22.5t22.5 54.5v463q0 13 -8.5 21.5t-21 8.5zM478 550.5q0 12.5 -9 21.5t-21 9h-4h-129v128v0q0 13 -9 22t-21.5 9
t-21 -9t-8.5 -22v0v-128h-123h-3q-13 0 -21.5 -9t-8.5 -21.5t8.5 -21t21.5 -8.5h3h123v-124v-1v-2v-1q1 -12 9.5 -20t20.5 -8t20.5 8t9.5 20v2v1v1l-1 124h130h4q12 0 21 8.5t9 21z" />
    <glyph glyph-name="uniE60D" unicode="&#xe60d;" 
d="M683 265q-76 101 -198 129q51 23 82.5 70t31.5 105q0 79 -56.5 135t-135.5 56q-57 0 -105 -31q-10 6 -23 6q-21 0 -36 -15t-15 -36q0 -16 8 -28q-21 -41 -21 -87q0 -58 31.5 -105t82.5 -70q-113 -26 -187.5 -116t-79.5 -207h588q-18 35 -18 75q0 70 51 119zM874 326
q-49 47 -114 67q35 21 55 56.5t20 77.5q0 66 -46.5 112t-111.5 46q-34 0 -66 -14q27 -49 27 -106q0 -88 -60 -153q-2 -1 -3 -3l-2 -2h1q-2 -3 -2 -7q0 -13 13 -14q71 -39 120 -103q42 28 92 28q31 0 60 -12q2 -1 10 -7q18 -11 20 -11q6 0 10.5 4t4.5 11q0 4 -9 13.5
t-19 16.5zM961 136q1 -2 1 -5h-1v5zM797 281q-56 0 -95.5 -39.5t-39.5 -95.5t39.5 -95.5t95.5 -39.5t95.5 39.5t39.5 95.5t-39.5 95.5t-95.5 39.5zM872 131h-60v-60q0 -6 -4.5 -10.5t-10.5 -4.5t-10.5 4.5t-4.5 10.5v60h-60q-6 0 -10.5 4t-4.5 10.5t4.5 11t10.5 4.5h60v60
q0 6 4.5 10.5t10.5 4.5t10.5 -4.5t4.5 -10.5v-60h60q6 0 10.5 -4.5t4.5 -11t-4.5 -10.5t-10.5 -4z" />
    <glyph glyph-name="uniE60E" unicode="&#xe60e;" 
d="M793.5 333q-95.5 0 -163 -67.5t-67.5 -163t67.5 -163t163 -67.5t163 67.5t67.5 163t-67.5 163t-163 67.5zM774 2l-125 124l31 31l94 -93l155 155l31 -31zM522 270q-33 3 -61 3q-47 0 -104 -8.5t-117 -26.5t-109.5 -43.5t-81.5 -63t-32 -80.5v-111h513q-52 78 -52 171
q0 85 44 159zM460.5 828q-91.5 0 -156.5 -65.5t-65 -157t65 -156.5t156.5 -65t157 65t65.5 156.5t-65.5 157t-157 65.5z" />
    <glyph glyph-name="uniE60F" unicode="&#xe60f;" 
d="M932 636h-840q-12 0 -20 8t-8 19.5t8 20t20 8.5h840q11 0 19.5 -8.5t8.5 -20t-8.5 -19.5t-19.5 -8zM932 356h-840q-12 0 -20 8t-8 19.5t8 20t20 8.5h840q11 0 19.5 -8.5t8.5 -20t-8.5 -19.5t-19.5 -8zM932 76h-840q-12 0 -20 8t-8 19.5t8 20t20 8.5h840q11 0 19.5 -8.5
t8.5 -20t-8.5 -19.5t-19.5 -8z" />
    <glyph glyph-name="uniE610" unicode="&#xe610;" 
d="M508.5 846q84.5 0 144 -59.5t59.5 -144t-59.5 -144t-144 -59.5t-144 59.5t-59.5 144t59.5 144t144 59.5zM508 896q-104 0 -178.5 -74t-74.5 -179t74.5 -179.5t179 -74.5t179 74.5t74.5 179.5t-74.5 179t-179.5 74zM102 42zM161 42q0 94 46.5 174t126.5 126.5t174 46.5
q136 0 236 -92l54 19q-112 122 -290 122q-110 0 -201.5 -52t-143.5 -143t-52 -202zM922 267l-196 -57l-197 57v61l197 -56l196 56v-61zM920 242q0 -6 -1.5 -16.5t-7.5 -42t-14 -62t-24 -69.5t-35 -71.5t-48.5 -62t-63.5 -46.5q-51 31 -90 81t-58 96t-30.5 94.5t-13.5 70
t-2 28.5l194 -73z" />
    <glyph glyph-name="uniE611" unicode="&#xe611;" 
d="M783 336h-8q-43 29 -94 48h-1q49 36 77.5 90.5t28.5 117.5q0 106 -75.5 182t-182.5 76t-182.5 -76t-75.5 -182q0 -64 29 -119t79 -91q-61 -22 -110 -57.5t-79.5 -73t-52.5 -82.5t-32.5 -79.5t-16.5 -69.5t-6.5 -47t-0.5 -19h64q1 8 3 22t12 53.5t25.5 76t45.5 81t68.5 76
t98 53.5t131.5 22q85 0 154 -30q-42 -26 -66.5 -69.5t-24.5 -94.5q0 -79 56 -135.5t136 -56.5q69 0 122 44q35 30 53 71q16 37 16 77q0 80 -56 136t-135 56zM528 397q-80 0 -137 57t-57 137.5t57 137.5t137 57t137 -57t57 -137.5t-57 -137.5t-137 -57zM911 65l-57 -56
l-73 76l-76 -74l-55 56l76 74l-75 76l57 55l75 -76l73 73l55 -57l-74 -72z" />
    <glyph glyph-name="uniE612" unicode="&#xe612;" horiz-adv-x="1204" 
d="M1036 616.5q0 115.5 -82 197.5t-197 82q-73 0 -135 -34.5t-100 -93.5q-58 39 -127 39q-93 0 -159 -66t-66 -159t66 -159t159 -66q94 0 160 67q82 -87 202 -87q115 0 197 82t82 197.5zM395 409q-72 0 -123 50.5t-51 122.5t51 123t123 51q57 0 103 -34q-21 -51 -21 -105
q0 -83 45 -152q-51 -56 -127 -56zM757 388q-102 0 -170 77v0l-2 2q-57 64 -57 150q0 94 67 161t161.5 67t161.5 -67t67 -161.5t-67 -161.5t-161 -67zM540 324q-130 -40 -213 -159t-83 -267q0 -11 7.5 -18.5t18 -7.5t18 7.5t7.5 18.5q0 131 73 236.5t187 140.5
q11 3 15.5 12.5t1.5 19.5t-12.5 15t-19.5 2zM279 324q-3 10 -12.5 15t-19.5 2q-104 -32 -170.5 -126.5t-67.5 -212.5q0 -11 7.5 -18.5t18.5 -7.5q10 0 17.5 7.5t7.5 17.5q1 102 57 183t145 108q10 3 15 12.5t2 19.5zM1168 61h-93v93q0 11 -7.5 18.5t-18 7.5t-18 -7.5
t-7.5 -18.5v-93h-93q-11 0 -18.5 -7.5t-7.5 -18t7.5 -18t18.5 -7.5h93v-93q0 -11 7.5 -18.5t18 -7.5t18 7.5t7.5 18.5v93h93q11 0 18.5 7.5t7.5 18t-7.5 18t-18.5 7.5z" />
    <glyph glyph-name="uniE613" unicode="&#xe613;" 
d="M1024 128h-576v64h453l-35 50l52 36zM530 -82l57 28l-27 54h464v64h-567zM482 320q-108 0 -200.5 -51t-149.5 -139t-65 -194h-64q10 149 102 265t231 160q-65 38 -103.5 103.5t-38.5 143.5q0 119 84 203.5t204 84.5q119 0 203.5 -84.5t84.5 -203.5q0 -78 -39 -143.5
t-103 -103.5q61 -20 120 -60l-45 -45q-101 64 -221 64zM481.5 384q92.5 0 158.5 65.5t66 158.5t-66 158.5t-158.5 65.5t-158 -65.5t-65.5 -158.5t65.5 -158.5t158 -65.5z" />
    <glyph glyph-name="uniE614" unicode="&#xe614;" 
d="M904 10l-75 132v277q0 89 -59 171q-60 83 -153 118h-1q-6 2 -14 4v10q0 37 -26.5 63.5t-63.5 26.5t-63.5 -26.5t-26.5 -63.5v-9q-8 -2 -12 -4h-1q-94 -34 -156 -118q-60 -82 -60 -172v-277l-80 -141q-16 -27 0 -54.5t48 -27.5h198q9 -56 52.5 -93.5t100.5 -37.5
t100.5 37.5t52.5 93.5h198q23 0 39 16t16 39q0 21 -14 36zM512 765q17 0 29.5 -12t13.5 -29q-8 1 -14 2q-4 1 -7 0q-1 1 -2 1q-13 2 -20.5 2t-20.5 -2q-1 0 -2 -1q-4 1 -7 0q-6 -1 -13 -2q1 17 13.5 29t29.5 12zM512 -165q-38 0 -67 24t-38 60h210q-9 -36 -38 -60t-67 -24z
M863 -34h-702q-5 0 -7 4t0 8l84 147q3 5 3 11v283q0 76 52.5 146.5t131.5 99.5q29 9 57 14q3 -1 5 0q4 0 11 1q9 1 13 1t14 -1q6 -1 10 -1q2 -1 5 0q29 -5 61 -16q78 -29 129.5 -99t51.5 -145v-283q0 -6 3 -11l80 -141q1 -3 4 -5q2 -2 2 -5q0 -8 -8 -8z" />
    <glyph glyph-name="uniE615" unicode="&#xe615;" 
d="M940 -9q-2 61 -30.5 114t-76.5 89v224q0 97 -61 171t-154 94v5q0 44 -31.5 75.5t-75.5 31.5q-45 0 -76.5 -31.5t-31.5 -75.5v-5q-93 -20 -154 -94t-61 -171v-224q-48 -36 -76 -89t-31 -114h107v-1h645v1h107zM488 -204h27q52 0 91 35t45 86h-281q6 -51 45.5 -86t91.5 -35
h-19z" />
    <glyph glyph-name="uniE616" unicode="&#xe616;" 
d="M427 395h-352q-31 0 -52.5 22t-21.5 53v351q0 31 21.5 53t52.5 22h352q31 0 53 -22t22 -53v-351q0 -31 -22 -53t-53 -22zM75 824q-1 0 -2 -1t-1 -2v-351q0 -3 3 -3h352q3 0 3 3v351q0 3 -3 3h-352zM427 -126h-352q-31 0 -52.5 22t-21.5 53v352q0 31 21.5 53t52.5 22h352
q31 0 53 -22t22 -53v-352q0 -31 -22 -53t-53 -22zM75 304q-1 0 -2 -1t-1 -2v-352q0 -3 3 -3h352q3 0 3 3v352q0 3 -3 3h-352zM768 411q-31 0 -53 22l-160 159q-21 22 -21 53t21 53l160 160q22 22 53 22t53 -22l160 -160q21 -22 21 -53t-21 -53l-160 -159q-22 -22 -53 -22z
M606 643l160 -160q2 -2 5 0l159 160q3 2 0 5l-160 159q-2 2 -4 0l-160 -160q-2 -2 0 -4zM944 -126h-352q-31 0 -53 22t-22 53v351q0 31 22 53t53 22h352q31 0 53 -22t22 -53v-351q0 -31 -22 -53t-53 -22zM592 304q-3 0 -3 -4v-351q0 -3 3 -3h352q3 0 3 3v351q0 3 -3 3h-352
v1z" />
    <glyph glyph-name="uniE617" unicode="&#xe617;" 
d="M625 692l-40 40l-365 -366l365 -366l40 40l-326 326z" />
    <glyph glyph-name="uniE618" unicode="&#xe618;" 
d="M874 532l-330 -339q-10 -9 -21 -8t-21 11q-9 9 -9.5 21.5t8.5 21.5l329 339q10 9 22.5 9t21.5 -9q10 -10 10 -23t-10 -23zM503 193l-351 343q-9 9 -8 20.5t11 20.5q9 9 21.5 10t21.5 -8l339 -330q10 -10 14 -27t-5 -26q-9 -10 -21 -11t-22 8z" />
    <glyph glyph-name="uniE619" unicode="&#xe619;" 
d="M344 33q-13 0 -21.5 9t-8.5 21.5t9 21.5l309 304l-312 313q-9 9 -9 21.5t9 21.5t21.5 9t21.5 -9l335 -334q9 -10 9 -22.5t-10 -21.5l-331 -325q-9 -9 -22 -9z" />
    <glyph glyph-name="uniE61A" unicode="&#xe61a;" 
d="M755 692q-13 10 -22 -3t4 -23q94 -67 135.5 -174t17.5 -220q-22 -102 -91.5 -178t-167.5 -107.5t-200 -9.5q-76 16 -138.5 59t-104.5 108t-56 139.5t2 149.5q27 122 119 205t215 98q7 0 11 5.5t3.5 12t-6 10.5t-11.5 3q-134 -15 -234 -105t-128 -222q-18 -81 -3 -162
t60.5 -151.5t113.5 -117t150 -64.5q44 -9 89 -9q146 0 261.5 92t147.5 237q26 122 -19.5 238.5t-147.5 188.5zM612 670q27 0 46.5 19t19.5 46t-19.5 46.5t-46.5 19.5q-28 0 -47.5 -19.5t-19.5 -46.5t19.5 -46t47.5 -19zM612 769q14 0 24 -10t10 -23.5t-10 -23.5t-24 -10
q-15 0 -25 10t-10 23.5t10 23.5t25 10zM642 538q4 15 -5 26q-10 12 -24 12h-151q-12 0 -22 -7.5t-9 -20.5q0 -14 8.5 -22t21.5 -8h12q15 0 24 -11t5 -26l-90 -334q-4 -14 5 -26q9 -11 24 -11h156q12 0 21 8t9 21v8q1 12 -8 21t-21 9h-15q-14 0 -23 12q-10 12 -5 26z" />
    <glyph glyph-name="uniE61B" unicode="&#xe61b;" 
d="M622 437v-6q0 -5 3.5 -8.5t8.5 -3.5t8.5 3.5t3.5 8.5v6h-24zM644 431q0 -4 -3 -7t-7 -3t-7 3t-3 7v4h20v-4zM634 424q3 0 3 3v2q0 3 -3 3t-3 -3v-2q0 -3 3 -3zM633 429q0 1 1 1t1 -1v-2q0 -1 -1 -1t-1 1v2zM628 444q0 5 6 5t6 -5v-5h2v5q0 7 -8 7t-8 -7v-5h2v5zM178 440
v-167q0 -91 45 -168t121.5 -121.5t167.5 -44.5t167.5 44.5t121.5 121.5t45 168v167h-668zM790 273q0 -115 -81.5 -197t-196.5 -82t-196.5 82t-81.5 197v111h556v-111zM512 78q34 0 58.5 24t25.5 59v56q0 35 -24.5 59.5t-59.5 24.5t-59.5 -24.5t-24.5 -59.5v-56
q1 -35 25.5 -59t58.5 -24zM484 217q0 12 8 20t20 8t20 -8t8 -20v-56q0 -11 -8.5 -19.5t-19.5 -8.5t-19.5 8.5t-8.5 19.5v56zM345 615q0 66 49 112.5t118 46.5t118 -46.5t49 -112.5v-120h56v120q0 89 -65.5 151.5t-157.5 62.5t-157.5 -62.5t-65.5 -151.5v-120h56v120z" />
    <glyph glyph-name="uniE61C" unicode="&#xe61c;" 
d="M517 88q7 0 15 1q37 4 66 28t40 60q2 6 -4 8.5t-9 -2.5q-2 -4 -7.5 -9.5t-30 -17t-58.5 -16.5q-17 -2 -33 -2q-53 0 -77 20q-5 5 -9.5 1t-1.5 -10q17 -28 46.5 -44.5t62.5 -16.5zM517 88zM926 559h-2q-34 146 -151 241.5t-268 95.5q-156 0 -275 -100.5t-148 -252.5
q-28 -5 -47 -27.5t-19 -51.5v-160q0 -34 23.5 -57.5t56.5 -23.5q38 0 62 30q27 -70 78.5 -124.5t120.5 -84.5q2 3 4.5 6.5t4.5 3.5t3 -2q-27 21 -65 79t-49 131q-5 36 17.5 68t56.5 38q32 6 101.5 20t106.5 21q65 12 93 73q10 21 14 56q1 7 8 7q4 0 7 -4l2 1
q81 -117 89 -221q8 -89 -6 -145t-71 -108q-2 -2 -2 -5t3 -5q0 -1 1 -1h1q1 -1 1.5 -1t1.5 1q1 0 2 0.5t1 1.5q62 34 107.5 89t67.5 123q19 -28 52 -35q-26 -115 -120.5 -186.5t-227.5 -83.5q-7 20 -25 32t-40 12q-30 0 -50.5 -20t-20.5 -48.5t20.5 -49t50.5 -20.5
q23 0 41.5 13.5t25.5 34.5q153 13 261.5 98.5t132.5 222.5q23 9 37 29.5t14 45.5v162q0 33 -24 57t-58 24zM852 513q-40 108 -135 175.5t-212 67.5q-118 0 -212.5 -67t-134.5 -174q-2 3 -9 8q23 130 123 216t233 86q131 0 231 -85t124 -214q-6 -7 -8 -13zM852 513zM357 44z
M357 44z" />
    <glyph glyph-name="uniE61D" unicode="&#xe61d;" 
d="M614.5 752q-105.5 0 -180 -74.5t-74.5 -179.5q0 -72 37 -132t98 -93q-127 -39 -207.5 -146.5t-80.5 -243.5q0 -10 7 -17t17 -7t17 7t7 17q0 98 48 180.5t130.5 131t179.5 48.5q4 -1 7 0q104 3 176.5 77t72.5 178q0 105 -74.5 179.5t-180 74.5zM614.5 292
q-85.5 0 -145.5 60.5t-60 145.5t60 145.5t145.5 60.5t146 -60.5t60.5 -145.5t-60.5 -145.5t-146 -60.5zM358 286v0q0 10 -7.5 17t-17.5 7q-66 0 -113 50t-47 121t47 121t113 50q10 0 17.5 7t7.5 17t-7.5 17t-17.5 7q-86 0 -147 -64t-61 -155q0 -59 28 -109.5t75 -79.5
q-100 -36 -163 -127t-63 -205q0 -10 7 -17t17 -7t17.5 7t7.5 17q0 125 82.5 213t199.5 88q10 0 17.5 7.5t7.5 17.5zM358 286zM979 63h-126v119q0 11 -7.5 18.5t-18 7.5t-18 -7.5t-7.5 -18.5v-119h-126q-11 0 -18.5 -7.5t-7.5 -18t7.5 -18t18.5 -7.5h126v-132
q0 -11 7.5 -18.5t18 -7.5t18 7.5t7.5 18.5v132h126q11 0 18.5 7.5t7.5 18t-7.5 18t-18.5 7.5z" />
    <glyph glyph-name="uniE61E" unicode="&#xe61e;" 
d="M161 191q0 43 30.5 73.5t73.5 30.5t73.5 -30.5t30.5 -73.5t-30.5 -73.5t-73.5 -30.5t-73.5 30.5t-30.5 73.5zM251 446h522q54 0 92.5 38.5t38.5 93t-38.5 92.5t-92.5 38h-522q-55 0 -93 -38t-38 -92.5t38 -92.5q38 -39 93 -39zM773 418h-522q-66 0 -113 47
q-47 46 -47 112t47 112.5t113 46.5h522q66 0 113 -46q47 -47 47 -112.5t-47 -112.5t-113 -47zM773 322h-522q-55 0 -93 -38.5t-38 -92.5t38 -92.5t93 -38.5h522q54 0 92.5 38.5t38.5 92.5t-38 92q-38 39 -93 39zM251 350h522q66 0 113 -47q47 -46 47 -112t-47 -112.5
t-113 -46.5h-522q-66 0 -113 46q-47 47 -47 113t47 112q47 47 113 47zM863 577q0 -43 -30.5 -73.5t-73.5 -30.5t-73 30.5t-30 73.5t30 73.5t73 30.5t73.5 -30.5t30.5 -73.5z" />
    <glyph glyph-name="uniE61F" unicode="&#xe61f;" 
d="M587 370h-150q-9 0 -15 7l-316 388q-8 9 -2.5 20.5t17.5 11.5h782q12 0 17.5 -11.5t-2.5 -20.5l-316 -388q-6 -7 -15 -7zM447 409h130l285 348h-700zM437 -29q-3 0 -7 2q-12 5 -12 18v399q0 8 5.5 13.5t13.5 5.5h150q8 0 13.5 -5.5t5.5 -13.5v-247q0 -8 -5 -14l-149 -152
q-6 -6 -15 -6zM457 370v-331l110 112v219h-110z" />
    <glyph glyph-name="uniE620" unicode="&#xe620;" 
d="M1021 286.5q0 -20.5 -14 -34t-34.5 -13.5t-33.5 13l-427 427v0l-430 -427q-21 -13 -34 -13q-21 0 -34.5 13.5t-13.5 34t14 33.5l464 461q14 14 34 14h3h4q10 0 31 -14l187 -187v41q0 20 14 33.5t34.5 13.5t34 -13.5t13.5 -33.5v-140l177 -178q11 -10 11 -30.5zM925 204
v-143v-65v-126q0 -21 -13.5 -34.5t-34.5 -13.5h-95v382h-191v-382h-444q-21 0 -34.5 13.5t-13.5 34.5v126v65v143l413 417zM433 204h-191v-191h191v191z" />
    <glyph glyph-name="uniE621" unicode="&#xe621;" 
d="M873 106q-3 21 -7 34q-7 24 -26.5 37.5t-44 23t-51.5 16.5t-49 16q-25 10 -39 22.5t-21 26.5t-7.5 28t2.5 27q2 11 5.5 18t9 13t12.5 11t15 12q7 6 13 17t10 22q5 13 10 28q8 3 16 10q6 6 12.5 17.5t8.5 30.5q2 14 -0.5 24t-6.5 16q-3 7 -9 12q1 35 -4 71q-5 30 -16 64
t-34 63q-10 12 -26.5 25t-37 22.5t-44.5 15.5t-50 6q-20 0 -42 -3t-44 -12t-43 -25t-38 -40q-19 -26 -28 -58t-13 -61q-3 -33 -3 -67q-7 -9 -11 -19q-4 -9 -5 -22t3.5 -28t10 -23t11.5 -13q6 -4 13 -6q4 -16 9 -28q4 -12 10 -22.5t13 -17.5q14 -12 26 -24t14 -32
q1 -14 1 -25.5t-4 -22.5t-14 -21t-28 -22q-24 -16 -55 -24q-32 -8 -61 -18t-51 -27t-27 -49q-8 -58 -3 -95t14 -44q5 -4 25 -10q20 -5 49 -10q28 -6 63 -11q35 -6 70.5 -10t69.5 -6q34 -3 60 -3t62 2q35 2 73 7q38 4 76 10q37 6 68 13t52 14t25 13q8 9 11 28t3 40.5t-3 42.5
zM576 180q-11 -19 -21 -27q2 -8 5 -24q4 -15 7 -33q4 -19 6 -33q3 -15 3 -21q0 -4 -7 -12.5t-16 -16.5t-18.5 -14t-14 -6t-14.5 6.5t-20.5 14.5t-18 16.5t-7.5 13.5q0 8 3 24q3 17 8 34q5 19 8 32q3 15 5 21q-7 9 -16 26q-3 4 1.5 11.5t11.5 13.5q7 7 17 15h44q11 -8 19 -15
q8 -6 12.5 -13.5t2.5 -12.5z" />
    <glyph glyph-name="uniE622" unicode="&#xe622;" 
d="M708 394h-393q-39 0 -67 -28t-28 -67.5t28 -68.5t67 -29h393q39 0 67.5 29t28.5 68q0 40 -28 68t-68 28zM347.5 235q-26.5 0 -45 18.5t-18.5 45t18.5 45t45 18.5t45 -18.5t18.5 -45t-18.5 -45t-45 -18.5zM676 235q-26 0 -45 18.5t-19 45t19 45t45 18.5t45 -18.5t19 -45
t-19 -45t-45 -18.5zM838 589h-653q-39 0 -67 -28t-28 -67v-415q0 -39 28 -67t67 -28h653q40 0 68 28t28 67v415q0 39 -28 67t-68 28zM870 79q0 -13 -9.5 -22.5t-22.5 -9.5h-64l-54 87h-390l-66 -87h-79q-13 0 -22 9.5t-9 22.5v415q0 13 9 22.5t22 9.5h653q13 0 22.5 -9.5
t9.5 -22.5v-415z" />
    <glyph glyph-name="uniE623" unicode="&#xe623;" 
d="M63 561h108v-235h-108v235zM233 592q8 1 22 1.5t56.5 6.5t84.5 15t100 27.5t109 42.5t104.5 62t93.5 85l24 -1q69 -11 104 -116q32 -99 27 -270q1 -7 1 -17.5t-1.5 -41.5t-5.5 -60.5t-15 -66.5t-27 -65.5t-43 -52t-62 -31.5q-3 3 -8.5 9t-27.5 23t-49.5 33t-75.5 36
t-103.5 35.5t-136 28t-171.5 16.5v301zM303 220q1 -6 2.5 -16t10.5 -41.5t22 -63.5t38.5 -76.5t57.5 -85.5q1 1 10.5 0t26 1t32.5 5t29.5 11t17.5 19q1 3 2 8.5t-4 21.5t-19 31q-2 3 -20.5 22.5t-36.5 40.5t-36 55.5t-24 67.5h-109z" />
    <glyph glyph-name="uniE625" unicode="&#xe625;" horiz-adv-x="1891" 
d="M935 47q0 15 1 27q-33 -6 -38 -7q-7 -2 -8 -8q0 -2 2 -5t4 -3q4 -1 11 4q17 11 21 13q-2 -16 -7 -20.5t-18 -5.5q-25 -2 -39 -11q-5 -4 -13 -6t-18.5 -3t-15.5 -3q-27 -6 -77.5 -18t-69.5 -16q-10 -2 -156 -36q0 4 -0.5 12.5t-1.5 14.5q-9 -2 -27 -6.5t-21 -4.5
q6 -8 8.5 -10.5t7 -2t8.5 7.5q2 3 5 4.5t8.5 3.5t9.5 4q-6 -14 -11.5 -20.5t-16.5 -7.5q-9 0 -24.5 -5.5t-18.5 -5.5q-30 -8 -95 -23q-111 -25 -162 -36q-13 -3 -23 -1q-25 4 -14 20q-12 15 -18.5 45.5t-10.5 39.5q7 3 14 7v1v2h-19q2 2 4 5.5t3 5.5t2 3q-12 20 -12 22
q-7 24 -19 77q-28 116 -54 227q0 1 -1 4.5t-1.5 5.5t-0.5 4t1.5 3.5t4.5 1.5q-10 17 -11 18q-5 20 -14 59q-1 2 -2 5.5t-1.5 5.5t-0.5 5t1.5 5.5t4.5 5.5q3 2 -4 14q-1 2 -5.5 4.5t-4.5 4.5q-1 16 3 24q1 3 17 8q1 0 4.5 -0.5t5.5 0.5q18 5 89 28q-1 -10 -1 -15h4
q5 10 13.5 15t15 6.5t18.5 2.5q15 1 41.5 8.5t36.5 9.5l12 2q2 -5 0 -10t0 -9t9 -4q0 3 -1.5 8.5t-1.5 8t2 5.5t5.5 4t9.5 2t7 1q93 22 117 27q26 6 105 24t122 27q2 1 49 16q0 -3 -2 -10.5t-0.5 -10.5t9.5 -4q-1 19 -1 20q2 6 13 8q33 8 95.5 21.5t90.5 20.5q20 5 84 19.5
t99 22.5q8 2 23.5 2.5t22.5 2.5q5 1 15.5 6.5t16.5 5.5q15 1 42.5 9.5t39.5 10.5q13 3 27.5 6t32 7.5t27.5 6.5q25 6 34 -7q0 -1 12 -20q-15 -3 -64.5 -15t-75.5 -12q0 1 -1 3v1l-7 -9q-10 -2 -32.5 -5t-33.5 -5q-5 -1 -13 -5.5t-12 -5.5q-209 -48 -333 -75q-20 -5 -31 7
q-8 7 -20 4q-11 -3 -24 -4q-14 -1 -8 -15q4 0 12 3t15 2.5t14 -8.5q-3 0 -7.5 -1t-7.5 -2t-5 -1q-279 -64 -357 -81q-21 -5 -32 4q-12 6 -17.5 6t-16.5 -3.5t-17 -3.5l-5 -11q6 -1 14 1.5t13 3t13 -6.5h-1h-1h-1l-1 -1h-1h-1h-1h-1l-1 -1h-1h-1h-1l-1 -1h-1h-1h-1l-1 -1h-1
h-1h-1l-1 -1h-1h-1h-1h-1l-1 -1h-1h-1h-1l-1 -1h-1h-1h-1l-1 -1h-1h-1h-1l-1 -1h-1h-1h-1h-1l-1 -1h-1h-1h-1l-1 -1h-1h-1h-1l-1 -1h-1h-1h-1h-1l-1 -1h-1h-1h-1l-1 -1h-1h-1h-1l-1 -1h-1h-1h-1l-1 -1h-1h-1h-1h-1l-1 -1h-1h-1h-1l-1 -1h-1h-1h-1l-1 -1h-1h-1h-1h-1l-1 -1
h-1h-1h-1l-1 -1h-1h-1h-1l-1 -1h-1h-1h-1l-1 -1h-1h-1h-1h-1l-1 -1h-1h-1h-1l-1 -1h-1h-1h-1l-1 -1h-1h-1h-1h-1l-1 -1h-1h-1h-1l-1 -1h-1h-1h-1l-1 -1h-1h-1h-1h-1l-1 -1h-1h-1h-1l-1 -1h-1h-1h-1l-1 -1h-1h-1h-1l-1 -1h-1h-1h-1h-1l-1 -1h-1h-1h-1l-1 -1h-1h-1h-1l-1 -1
h-1h-1h-1h-1l-1 -1h-2h-1l-1 -1h-1h-1h-1h-1l-1 -1h-1h-1h-1l-1 -1h-1h-1h-1l-1 -1h-1h-1h-1h-1l-1 -1h-1h-1h-1l-1 -1h-1h-1h-1l-1 -1h-1h-1h-1h-1l-1 -1h-1h-1h-1l-1 -1h-1h-1h-1l-1 -1h-1h-1h-1l-1 -1h-1h-1h-1h-1l-1 -1h-1h-1h-1l-1 -1h-1h-1h-1l-1 -1h-1h-1h-1h-1
l-1 -1h-1h-1h-1l-1 -1h-1h-1h-1l-1 -1h-1h-1h-1h-1l-1 -1h-1h-1h-1l-1 -1h-1h-1h-1l-1 -1h-1h-1h-1h-1l-1 -1h-1h-1h-1l-1 -1h-1h-1h-1l-1 -1h-1h-1h-1l-1 -1h-1h-1h-1h-1l-1 -1h-1h-1h-1l-1 -1h-1h-1h-1l-1 -1h-1h-1h-1h-1l-1 -1h-1h-1h-1l-1 -1h-1h-1h-1l-1 -1h-1h-1
q3 -18 3 -19q39 -169 43 -184v-32q15 -10 19 -58l-16 -6v-4q2 0 9 -1.5t11 -2.5q33 -140 36 -154q16 -67 25 -102q1 -2 6 -4t8 -2q45 11 133.5 31t130.5 30q124 28 340 76q3 0 10 -0.5t10 0.5q5 2 15.5 6t16.5 6q77 17 164 37.5t191.5 44t164.5 37.5q15 4 200 47
q5 -10 15.5 -11.5t13.5 7.5q1 2 2.5 4t2.5 3.5t3.5 2.5t3 1t3.5 0.5t4 1.5q42 9 231 53q6 1 17 4q-28 120 -34 144q-30 130 -32 142q-4 19 -13.5 68t-15.5 75q-2 10 -37 134q-28 15 -30 16q-2 0 -6.5 3t-7 3.5t-6.5 -0.5t-8 -5h-10v-4q12 -1 28 -2q-2 -18 -20 -15
q-3 0 -9 -3t-9 -4q-17 -3 -51 -9.5t-51 -10.5q-3 0 -9 -3t-9 -3q-10 -2 -72 -11v-2v-4q-7 2 -8 2q-3 3 -21 27q94 21 101 23q20 4 60 12.5t59 12.5q5 1 14 4t13 4q2 1 9.5 3t10 1.5t7 -3t6.5 -9.5q0 -1 8 0q-1 4 -3.5 8.5t-4.5 8.5q9 0 31 1q-2 -9 -3 -15q4 -2 7 -4
q0 1 2 17l12 -9l-2 -4q-1 0 -9 -1q4 -7 5 -8t4 -3.5t5 -4.5t2 -5q6 -24 30 -128q-8 -5 -15 -9q8 -2 13.5 -8t7.5 -10t4 -14.5t2 -12.5q24 -93 68 -281q6 -22 22 -99q4 -16 0.5 -21.5t-19.5 -10.5q-150 -40 -171 -45q-3 -1 -307 -69q-21 -5 -76 -17.5t-85 -19.5
q-19 -4 -58.5 -12t-60.5 -13q-16 -4 -35 -8.5t-41.5 -10t-35.5 -8.5q-3 0 -63 -14zM278 274l87 21l12 -51l-88 -20zM360 319l-88 -21l-11 49l87 20zM298 52q67 33 119 71q13 -15 26 -31l16 19q-27 36 -74 81l-18 -17q16 -15 33 -33q-34 -23 -80 -49l-25 106l113 26l-40 172
l-139 -32l63 -273q3 -10 -9 -17zM561 154q33 8 25 42l-55 238l-120 -27l75 -322l26 6l-68 297l67 15l48 -207q3 -15 -12 -19l-32 -6l13 -24zM733 308l5 -25l140 32l22 -93q4 -16 -14 -20q-19 -5 -46 -9l11 -24l49 11q36 8 28 42l-23 99l44 10l-5 26l-45 -10l-9 37l-26 -6
l9 -38zM643 476l42 -184q-39 -54 -65 -79l18 -23q26 28 54 70l29 -122l26 6l-77 338zM789 278l-17 -16q37 -28 60 -51l17 19q-23 23 -60 48zM776 452l96 22q-11 -37 -47 -69q-23 13 -47 23l-15 -18q23 -10 42 -21q-32 -21 -72 -40l19 -21q135 66 148 154l-5 23l-108 -25
q4 13 6 25l-29 -1q-9 -55 -62 -99l22 -17q33 29 52 64zM597 419l-21 -14q32 -29 63 -70l21 14q-30 40 -63 70zM956 542l-15 -21q46 -23 76 -46l15 24q-33 23 -76 43zM1255 268l77 18l1 28q-10 -3 -38 -10q-9 -2 -25 -6l-24 -6q-36 -8 -76 -17q-36 -6 -55 -3q-17 3 -35 16
q-5 3 -12 6l-32 138l-78 -18l6 -25l53 12l26 -111q-21 -15 -40 -70l24 -13q19 59 33 62q7 1 17 -6q23 -16 47 -17t62 7q50 11 69 15zM1232 315q34 8 26 40l-37 163l54 12l-6 27l-54 -13l-14 60l-27 -7l14 -59l-139 -32l6 -27l139 33l36 -157q3 -15 -12 -19q-21 -5 -50 -9
l12 -24zM1102 456l-17 -18q42 -32 70 -61l18 20q-26 26 -71 59zM1315 630l9 -42l-22 -5l5 -25l23 6l36 -156l-27 -6l6 -25l174 40l-6 25l-24 -6l-35 156l22 5l-6 25l-22 -5l-10 40l-25 -6l9 -40l-72 -17l-9 41zM1392 414l-8 36l71 16l9 -36zM1428 586l8 -37l-72 -16l-8 37z
M1378 473l-8 36l72 17l8 -36zM1465 394l-18 -18q33 -27 54 -52l16 19q0 -2 -1 -3l25 -14q25 57 16 131l72 17l17 -76q4 -16 -10 -20q-11 -2 -39 -7l14 -24l39 9q32 7 25 39l-67 289l-122 -29l40 -172q17 -78 -8 -138q-20 23 -53 49zM1393 378q-11 -41 -33 -76l24 -10
q21 35 33 81zM1538 548l70 16l15 -66l-70 -16q0 1 -0.5 4.5t-1.5 4.5zM1602 588l-69 -16l-15 64l69 16z" />
    <glyph glyph-name="uniE626" unicode="&#xe626;" horiz-adv-x="1891" 
d="M935 47q0 15 1 27q-33 -6 -38 -7q-7 -2 -8 -8q0 -2 2 -5t4 -3q4 -1 11 4q17 11 21 13q-2 -16 -7 -20.5t-18 -5.5q-25 -2 -39 -11q-5 -4 -13 -6t-18.5 -3t-15.5 -3q-27 -6 -77.5 -18t-69.5 -16q-10 -2 -156 -36q0 4 -0.5 12.5t-1.5 14.5q-9 -2 -27 -6.5t-21 -4.5
q6 -8 8.5 -10.5t7 -2t8.5 7.5q2 3 5 4.5t8.5 3.5t9.5 4q-6 -14 -11.5 -20.5t-16.5 -7.5q-9 0 -24.5 -5.5t-18.5 -5.5q-30 -8 -95 -23q-111 -25 -162 -36q-13 -3 -23 -1q-25 4 -14 20q-12 15 -18.5 45.5t-10.5 39.5q7 3 14 7v1v2h-19q2 2 4 5.5t3 5.5t2 3q-12 20 -12 22
q-7 24 -19 77q-28 116 -54 227q0 1 -1 4.5t-1.5 5.5t-0.5 4t1.5 3.5t4.5 1.5q-10 17 -11 18q-5 20 -14 59q-1 2 -2 5.5t-1.5 5.5t-0.5 5t1.5 5.5t4.5 5.5q3 2 -4 14q-1 2 -5.5 4.5t-4.5 4.5q-1 16 3 24q1 3 17 8q1 0 4.5 -0.5t5.5 0.5q18 5 89 28q-1 -10 -1 -15h4
q5 10 13.5 15t15 6.5t18.5 2.5q15 1 41.5 8.5t36.5 9.5l12 2q2 -5 0 -10t0 -9t9 -4q0 3 -1.5 8.5t-1.5 8t2 5.5t5.5 4t9.5 2t7 1q93 22 117 27q26 6 105 24t122 27q2 1 49 16q0 -3 -2 -10.5t-0.5 -10.5t9.5 -4q-1 19 -1 20q2 6 13 8q33 8 95.5 21.5t90.5 20.5q20 5 84 19.5
t99 22.5q8 2 23.5 2.5t22.5 2.5q5 1 15.5 6.5t16.5 5.5q15 1 42.5 9.5t39.5 10.5q13 3 27.5 6t32 7.5t27.5 6.5q25 6 34 -7q0 -1 12 -20q-15 -3 -64.5 -15t-75.5 -12q0 1 -1 3v1l-7 -9q-10 -2 -32.5 -5t-33.5 -5q-5 -1 -13 -5.5t-12 -5.5q-209 -48 -333 -75q-20 -5 -31 7
q-8 7 -20 4q-11 -3 -24 -4q-14 -1 -8 -15q4 0 12 3t15 2.5t14 -8.5q-3 0 -7.5 -1t-7.5 -2t-5 -1q-279 -64 -357 -81q-21 -5 -32 4q-12 6 -17.5 6t-16.5 -3.5t-17 -3.5l-5 -11q6 -1 14 1.5t13 3t13 -6.5h-1h-1h-1l-1 -1h-1h-1h-1h-1l-1 -1h-1h-1h-1l-1 -1h-1h-1h-1l-1 -1h-1
h-1h-1l-1 -1h-1h-1h-1h-1l-1 -1h-1h-1h-1l-1 -1h-1h-1h-1l-1 -1h-1h-1h-1l-1 -1h-1h-1h-1h-1l-1 -1h-1h-1h-1l-1 -1h-1h-1h-1l-1 -1h-1h-1h-1h-1l-1 -1h-1h-1h-1l-1 -1h-1h-1h-1l-1 -1h-1h-1h-1l-1 -1h-1h-1h-1h-1l-1 -1h-1h-1h-1l-1 -1h-1h-1h-1l-1 -1h-1h-1h-1h-1l-1 -1
h-1h-1h-1l-1 -1h-1h-1h-1l-1 -1h-1h-1h-1l-1 -1h-1h-1h-1h-1l-1 -1h-1h-1h-1l-1 -1h-1h-1h-1l-1 -1h-1h-1h-1h-1l-1 -1h-1h-1h-1l-1 -1h-1h-1h-1l-1 -1h-1h-1h-1h-1l-1 -1h-1h-1h-1l-1 -1h-1h-1h-1l-1 -1h-1h-1h-1l-1 -1h-1h-1h-1h-1l-1 -1h-1h-1h-1l-1 -1h-1h-1h-1l-1 -1
h-1h-1h-1h-1l-1 -1h-2h-1l-1 -1h-1h-1h-1h-1l-1 -1h-1h-1h-1l-1 -1h-1h-1h-1l-1 -1h-1h-1h-1h-1l-1 -1h-1h-1h-1l-1 -1h-1h-1h-1l-1 -1h-1h-1h-1h-1l-1 -1h-1h-1h-1l-1 -1h-1h-1h-1l-1 -1h-1h-1h-1l-1 -1h-1h-1h-1h-1l-1 -1h-1h-1h-1l-1 -1h-1h-1h-1l-1 -1h-1h-1h-1h-1
l-1 -1h-1h-1h-1l-1 -1h-1h-1h-1l-1 -1h-1h-1h-1h-1l-1 -1h-1h-1h-1l-1 -1h-1h-1h-1l-1 -1h-1h-1h-1h-1l-1 -1h-1h-1h-1l-1 -1h-1h-1h-1l-1 -1h-1h-1h-1l-1 -1h-1h-1h-1h-1l-1 -1h-1h-1h-1l-1 -1h-1h-1h-1l-1 -1h-1h-1h-1h-1l-1 -1h-1h-1h-1l-1 -1h-1h-1h-1l-1 -1h-1h-1
q3 -18 3 -19q39 -169 43 -184v-32q15 -10 19 -58l-16 -6v-4q2 0 9 -1.5t11 -2.5q33 -140 36 -154q16 -67 25 -102q1 -2 6 -4t8 -2q45 11 133.5 31t130.5 30q124 28 340 76q3 0 10 -0.5t10 0.5q5 2 15.5 6t16.5 6q77 17 164 37.5t191.5 44t164.5 37.5q15 4 200 47
q5 -10 15.5 -11.5t13.5 7.5q1 2 2.5 4t2.5 3.5t3.5 2.5t3 1t3.5 0.5t4 1.5q42 9 231 53q6 1 17 4q-28 120 -34 144q-30 130 -32 142q-4 19 -13.5 68t-15.5 75q-2 10 -37 134q-28 15 -30 16q-2 0 -6.5 3t-7 3.5t-6.5 -0.5t-8 -5h-10v-4q12 -1 28 -2q-2 -18 -20 -15
q-3 0 -9 -3t-9 -4q-17 -3 -51 -9.5t-51 -10.5q-3 0 -9 -3t-9 -3q-10 -2 -72 -11v-2v-4q-7 2 -8 2q-3 3 -21 27q94 21 101 23q20 4 60 12.5t59 12.5q5 1 14 4t13 4q2 1 9.5 3t10 1.5t7 -3t6.5 -9.5q0 -1 8 0q-1 4 -3.5 8.5t-4.5 8.5q9 0 31 1q-2 -9 -3 -15q4 -2 7 -4
q0 1 2 17l12 -9l-2 -4q-1 0 -9 -1q4 -7 5 -8t4 -3.5t5 -4.5t2 -5q6 -24 30 -128q-8 -5 -15 -9q8 -2 13.5 -8t7.5 -10t4 -14.5t2 -12.5q24 -93 68 -281q6 -22 22 -99q4 -16 0.5 -21.5t-19.5 -10.5q-150 -40 -171 -45q-3 -1 -307 -69q-21 -5 -76 -17.5t-85 -19.5
q-19 -4 -58.5 -12t-60.5 -13q-16 -4 -35 -8.5t-41.5 -10t-35.5 -8.5q-3 0 -63 -14zM521 481q6 -34 14 -66l16 -69q9 -40 20 -77l-41 -9l-7 28l-247 -58l29 -126q7 -46 57 -32l186 44q32 5 41.5 19t2.5 68q24 -8 52 -9q1 -54 -9 -75t-36 -29l-251 -59q-67 -17 -78 43l-37 162
q-4 17 -18 68l45 11q4 -27 10 -53l246 58l-28 118l-208 -49q-42 -10 -97 -25l-9 38q54 10 96 20zM821 229l-32 137q-45 -11 -66 -17l-8 37q17 0 70 13l35 8q5 -28 12 -57l27 -116q65 -34 171.5 -10t165.5 48q-7 -22 -6 -51l-112 -27q-47 -11 -87 -17t-70.5 0.5t-54.5 16.5
t-37.5 -12t-28.5 -59q-16 16 -41 24q46 64 62 82zM813 482q-16 -15 -30 -33q-53 55 -75 68q14 13 27 34q24 -18 78 -69zM1047 300q11 6 4 34l-40 171l-122 -29q-20 -4 -44 -12l-9 36q25 3 61 12l107 25q-12 48 -24 83l43 10q4 -24 18 -84q40 9 71 18l8 -35q-31 -6 -72 -15
l44 -186q10 -43 -13.5 -57.5t-60.5 -24.5q-8 19 -25 39q44 8 54 15zM879 417q15 11 31 29q50 -60 65 -84q-11 -11 -32 -29q-29 46 -64 84zM1346 324q-13 -32 -27 -57q-22 9 -37 13q14 17 27.5 45t19.5 53l42 -14q-11 -9 -25 -40zM1244 682l39 9q7 -37 13 -62l84 20
q-8 35 -17 61l42 10q5 -32 12 -63q13 4 34 10l7 -32q-19 -2 -34 -6l42 -178q15 4 33 10l7 -32q-36 -6 -69 -14l-102 -24q-40 -9 -70 -18l-8 31q28 5 51 10l-42 178q-16 -3 -38 -11l-8 32q21 3 40 8q-7 27 -16 61zM1396 579l-10 42l-84 -20l10 -41zM1412 512l-9 39l-85 -20
l10 -39zM1428 443l-10 41l-84 -20l10 -41zM1418 375q10 10 19 28q28 -17 66 -44q-12 -14 -24 -33q-40 38 -61 49zM1668 390l-25 105l-82 -19q7 -46 -0.5 -91.5t-30.5 -88.5q-17 14 -42 16q25 40 32.5 79t2 75.5t-24.5 116.5q-19 82 -33 131l160 38q6 -36 18 -87l64 -276
q7 -26 -8 -39t-42 -24q-5 21 -25 40q44 4 36 24zM1612 630l-20 84l-81 -19l20 -84zM1637 523l-19 79l-80 -19l18 -79z" />
  </font>
</defs>
</svg>
